<?xml version="1.0" encoding="utf-8"?>
<!-- Generator: Adobe Illustrator 16.0.0, SVG Export Plug-In . SVG Version: 6.00 Build 0)  -->
<!DOCTYPE svg PUBLIC "-//W3C//DTD SVG 1.1//EN" "http://www.w3.org/Graphics/SVG/1.1/DTD/svg11.dtd">
<svg version="1.1" id="Layer_1" xmlns="http://www.w3.org/2000/svg" xmlns:xlink="http://www.w3.org/1999/xlink" x="0px" y="0px"
	 width="721px" height="191px" viewBox="0 0 721 191" enable-background="new 0 0 721 191" xml:space="preserve">
<g>
	<text transform="matrix(1 0 0 1 174.8164 86.1113)" font-family="'GeosansLight'" font-size="18.1203">rdf:type</text>
</g>
<g>
	<text transform="matrix(1 0 0 1 176.1289 55.6074)" font-family="'GeosansLight'" font-size="20">opm:Assumed</text>
</g>
<g>
	<g>
		<path fill="none" stroke="#000000" stroke-width="0.4" stroke-miterlimit="10" d="M310,95.721
			c-41.583,0-77.024-11.313-81.455-33.361"/>
		<g>
			<polygon points="231.848,64.232 228.758,63.332 225.964,64.93 228.079,57.607 			"/>
		</g>
	</g>
</g>
<rect x="150.58" y="159.516" opacity="0.8" fill="#ECECEC" stroke="#1E1E1C" stroke-width="0.1428" stroke-miterlimit="10" enable-background="new    " width="97.938" height="19.074"/>
<path opacity="0.8" fill="#EEEDED" stroke="#010202" stroke-width="0.1812" stroke-miterlimit="10" enable-background="new    " d="
	M411,105.355c0,6.379-5.188,11.563-11.574,11.563h-77.852c-6.391,0-11.574-5.184-11.574-11.563v-19.71
	c0-6.391,5.187-11.563,11.574-11.563h77.852c6.391,0,11.574,5.172,11.574,11.563V105.355z"/>
<g opacity="0.8">
	<text transform="matrix(1 0 0 1 323.3096 105.1846)" fill="#010202" font-family="'GeosansLight'" font-size="30.2001">&lt;state&gt;</text>
</g>
<g opacity="0.8">
	<text transform="matrix(1 0 0 1 305.2012 68.5693)" fill="#010202" font-family="'GeosansLight'" font-size="18.1203">rdf:type</text>
</g>
<g opacity="0.8">
	<text transform="matrix(1 0 0 1 363.5137 141.8271)" fill="#010202" font-family="'GeosansLight'" font-size="18.1203">prov:generatedAtTime</text>
</g>
<g opacity="0.8">
	<text transform="matrix(1 0 0 1 216.3018 130.9219)" fill="#010202" font-family="'GeosansLight'" font-size="18.1203">schema:value</text>
</g>
<g opacity="0.8">
	<text transform="matrix(1 0 0 1 151.1284 176.4775)" fill="#010202" font-family="'GeosansLight'" font-size="20">“some value”</text>
</g>
<g opacity="0.8">
	<g>
		<line fill="none" stroke="#010202" stroke-width="0.4" stroke-miterlimit="10" x1="360.504" y1="74.08" x2="360.504" y2="72.08"/>
		
			<line fill="none" stroke="#010202" stroke-width="0.4" stroke-miterlimit="10" stroke-dasharray="3.7547,3.7547" x1="360.504" y1="68.326" x2="360.504" y2="47.674"/>
		
			<line fill="none" stroke="#010202" stroke-width="0.4" stroke-miterlimit="10" x1="360.504" y1="45.797" x2="360.504" y2="43.797"/>
		<g>
			<polygon fill="#010202" points="363.467,46.043 360.504,44.785 357.541,46.043 360.504,39.021 			"/>
		</g>
	</g>
</g>
<g opacity="0.8">
	<g>
		
			<line fill="none" stroke="#010202" stroke-width="0.4" stroke-miterlimit="10" x1="360.504" y1="116.918" x2="360.504" y2="153.117"/>
		<g>
			<polygon fill="#010202" points="357.541,150.871 360.504,152.129 363.467,150.871 360.504,157.893 			"/>
		</g>
	</g>
</g>
<g opacity="0.8">
	<g>
		<path fill="none" stroke="#010202" stroke-width="0.4" stroke-miterlimit="10" d="M310,95.721
			c-82.585,0-108.139,26.806-110.451,57.4"/>
		<g>
			<polygon fill="#010202" points="196.747,150.736 199.646,152.135 202.665,151.02 199.372,157.893 			"/>
		</g>
	</g>
</g>
<rect x="275.277" y="159.516" opacity="0.8" fill="#ECECEC" stroke="#1E1E1C" stroke-width="0.197" stroke-miterlimit="10" enable-background="new    " width="186.547" height="19.074"/>
<text transform="matrix(1 0 0 1 276.2773 175.4775)" opacity="0.8" fill="#1E1E1C" enable-background="new    " font-family="'GeosansLight'" font-size="18.1203">“2018-03-22T12:00:00Z”</text>
<text transform="matrix(1 0 0 1 462.4512 166.8379)" opacity="0.8" fill="#1E1E1C" enable-background="new    " font-family="'GeosansLight'" font-size="10.5641">^^xsd:dateTime</text>
<g opacity="0.8">
	<text transform="matrix(1 0 0 1 487.0146 86.1113)" font-family="'GeosansLight'" font-size="18.1203">rdf:type</text>
</g>
<g opacity="0.8">
	<text transform="matrix(1 0 0 1 308.3438 19.0146)" font-family="'GeosansLight'" font-size="18.1203">seas:Evaluation</text>
	<text transform="matrix(1 0 0 1 258.0205 34.7588)" font-family="'GeosansLight'" font-size="18.1203">prov:Entity, opm:PropertyState</text>
</g>
<g opacity="0.8">
	<text transform="matrix(1 0 0 1 389.6875 55.6084)" font-family="'GeosansLight'" font-size="20">opm:CurrentPropertyState</text>
</g>
<g opacity="0.8">
	<g>
		<path fill="none" stroke="#000000" stroke-width="0.4" stroke-miterlimit="10" d="M411.004,95.721
			c65.701,0,75.725-11.305,76.108-33.336"/>
		<g>
			<polygon points="489.977,64.684 487.037,63.371 484.052,64.574 487.144,57.607 			"/>
		</g>
	</g>
</g>
</svg>
