<?xml version="1.0" encoding="utf-8"?>
<!-- Generator: Adobe Illustrator 16.0.0, SVG Export Plug-In . SVG Version: 6.00 Build 0)  -->
<!DOCTYPE svg PUBLIC "-//W3C//DTD SVG 1.1//EN" "http://www.w3.org/Graphics/SVG/1.1/DTD/svg11.dtd">
<svg version="1.1" id="Layer_1" xmlns="http://www.w3.org/2000/svg" xmlns:xlink="http://www.w3.org/1999/xlink" x="0px" y="0px"
	 width="721px" height="191px" viewBox="0 0 721 191" enable-background="new 0 0 721 191" xml:space="preserve">
<g>
	<text transform="matrix(1 0 0 1 174.8164 86.1113)" font-family="'GeosansLight'" font-size="18.1203">rdf:type</text>
</g>
<g>
	<text transform="matrix(1 0 0 1 11.3452 101.1118)" font-family="'GeosansLight'" font-size="18.1203">opm:documentation</text>
</g>
<g>
	<text transform="matrix(1 0 0 1 439.9336 116.918)" font-family="'GeosansLight'" font-size="18.1203">prov:wasAttributedTo</text>
</g>
<g>
	<text transform="matrix(1 0 0 1 169.209 55.6079)" font-family="'GeosansLight'" font-size="20">opm:Confirmed</text>
</g>
<g>
	<g>
		<path fill="none" stroke="#000000" stroke-width="0.4" stroke-miterlimit="10" d="M310,95.721
			c-41.583,0-77.024-11.313-81.455-33.361"/>
		<g>
			<polygon points="231.848,64.232 228.758,63.332 225.964,64.93 228.079,57.607 			"/>
		</g>
	</g>
</g>
<rect x="147.778" y="159.516" opacity="0.8" fill="#ECECEC" stroke="#1E1E1C" stroke-width="0.1428" stroke-miterlimit="10" width="97.938" height="19.074"/>
<path opacity="0.8" fill="#EEEDED" stroke="#010202" stroke-width="0.1812" stroke-miterlimit="10" d="M411,105.355
	c0,6.379-5.188,11.563-11.574,11.563h-77.852c-6.391,0-11.574-5.184-11.574-11.563V85.645c0-6.391,5.187-11.563,11.574-11.563
	h77.852c6.39,0,11.574,5.172,11.574,11.563V105.355z"/>
<g opacity="0.8">
	<text transform="matrix(1 0 0 1 323.3096 105.1846)" fill="#010202" font-family="'GeosansLight'" font-size="30.2001">&lt;state&gt;</text>
</g>
<path opacity="0.8" fill="#EEEDED" stroke="#010202" stroke-width="0.1812" stroke-miterlimit="10" d="M124.667,167.748
	c0,6.379-5.188,11.563-11.574,11.563H35.241c-6.391,0-11.574-5.184-11.574-11.563v-19.711c0-6.391,5.187-11.563,11.574-11.563
	h77.852c6.39,0,11.574,5.172,11.574,11.563V167.748z"/>
<g opacity="0.8">
	<text transform="matrix(1 0 0 1 41.5361 167.5771)" fill="#010202" font-family="'GeosansLight'" font-size="30.2001">&lt;mail&gt;</text>
</g>
<path opacity="0.8" fill="#EEEDED" stroke="#010202" stroke-width="0.1812" stroke-miterlimit="10" d="M697.494,167.748
	c0,6.379-5.188,11.563-11.574,11.563h-77.852c-6.391,0-11.574-5.184-11.574-11.563v-19.711c0-6.391,5.188-11.563,11.574-11.563
	h77.852c6.391,0,11.574,5.172,11.574,11.563V167.748z"/>
<g opacity="0.8">
	<text transform="matrix(1 0 0 1 608.4746 167.5771)" fill="#010202" font-family="'GeosansLight'" font-size="30.2001">&lt;mhra&gt;</text>
</g>
<g opacity="0.8">
	<text transform="matrix(1 0 0 1 305.2012 68.5693)" fill="#010202" font-family="'GeosansLight'" font-size="18.1203">rdf:type</text>
</g>
<g opacity="0.8">
	<text transform="matrix(1 0 0 1 363.5137 141.8271)" fill="#010202" font-family="'GeosansLight'" font-size="18.1203">prov:generatedAtTime</text>
</g>
<g opacity="0.8">
	<text transform="matrix(1 0 0 1 487.0146 86.1113)" fill="#010202" font-family="'GeosansLight'" font-size="18.1203">rdf:type</text>
</g>
<g opacity="0.8">
	<text transform="matrix(1 0 0 1 216.3018 130.9219)" fill="#010202" font-family="'GeosansLight'" font-size="18.1203">schema:value</text>
</g>
<g opacity="0.8">
	<text transform="matrix(1 0 0 1 151.688 176.4775)" fill="#010202" font-family="'GeosansLight'" font-size="20">“final value”</text>
</g>
<g opacity="0.8">
	<text transform="matrix(1 0 0 1 308.3438 19.0146)" fill="#010202" font-family="'GeosansLight'" font-size="18.1203">seas:Evaluation</text>
	<text transform="matrix(1 0 0 1 258.0205 34.7588)" fill="#010202" font-family="'GeosansLight'" font-size="18.1203">prov:Entity, opm:PropertyState</text>
</g>
<g opacity="0.8">
	<text transform="matrix(1 0 0 1 389.6875 55.6084)" fill="#010202" font-family="'GeosansLight'" font-size="20">opm:CurrentPropertyState</text>
</g>
<g opacity="0.8">
	<text transform="matrix(1 0 0 1 604.4648 95.5)" fill="#010202" font-family="'GeosansLight'" font-size="20">prov:Agent</text>
</g>
<g opacity="0.8">
	<g>
		<line fill="none" stroke="#010202" stroke-width="0.4" stroke-miterlimit="10" x1="360.504" y1="74.08" x2="360.504" y2="72.08"/>
		
			<line fill="none" stroke="#010202" stroke-width="0.4" stroke-miterlimit="10" stroke-dasharray="3.7547,3.7547" x1="360.504" y1="68.326" x2="360.504" y2="47.674"/>
		
			<line fill="none" stroke="#010202" stroke-width="0.4" stroke-miterlimit="10" x1="360.504" y1="45.797" x2="360.504" y2="43.797"/>
		<g>
			<polygon fill="#010202" points="363.467,46.043 360.504,44.785 357.541,46.043 360.504,39.021 			"/>
		</g>
	</g>
</g>
<g opacity="0.8">
	<text transform="matrix(1 0 0 1 649.957 128.9365)" fill="#010202" font-family="'GeosansLight'" font-size="18.1203">rdf:type</text>
</g>
<g opacity="0.8">
	<g>
		
			<line fill="none" stroke="#010202" stroke-width="0.4" stroke-miterlimit="10" x1="646.994" y1="134.447" x2="646.994" y2="132.447"/>
		
			<line fill="none" stroke="#010202" stroke-width="0.4" stroke-miterlimit="10" stroke-dasharray="3.7547,3.7547" x1="646.994" y1="128.693" x2="646.994" y2="108.041"/>
		
			<line fill="none" stroke="#010202" stroke-width="0.4" stroke-miterlimit="10" x1="646.994" y1="106.164" x2="646.994" y2="104.164"/>
		<g>
			<polygon fill="#010202" points="649.957,106.41 646.994,105.152 644.031,106.41 646.994,99.389 			"/>
		</g>
	</g>
</g>
<g opacity="0.8">
	<g>
		
			<line fill="none" stroke="#010202" stroke-width="0.4" stroke-miterlimit="10" x1="360.504" y1="116.918" x2="360.504" y2="153.117"/>
		<g>
			<polygon fill="#010202" points="357.541,150.871 360.504,152.129 363.467,150.871 360.504,157.893 			"/>
		</g>
	</g>
</g>
<g opacity="0.8">
	<g>
		<path fill="none" stroke="#010202" stroke-width="0.4" stroke-miterlimit="10" d="M411.004,95.721
			c65.701,0,75.725-11.305,76.108-33.336"/>
		<g>
			<polygon fill="#010202" points="489.977,64.684 487.037,63.371 484.052,64.574 487.144,57.607 			"/>
		</g>
	</g>
</g>
<g opacity="0.8">
	<g>
		<path fill="none" stroke="#010202" stroke-width="0.4" stroke-miterlimit="10" d="M310,95.721
			c-82.585,0-108.139,26.806-110.451,57.4"/>
		<g>
			<polygon fill="#010202" points="196.747,150.737 199.646,152.135 202.665,151.019 199.372,157.893 			"/>
		</g>
	</g>
</g>
<g opacity="0.8">
	<g>
		<path fill="none" stroke="#010202" stroke-width="0.4" stroke-miterlimit="10" d="M310,95.721
			c-82.585,0-233.678,3.413-235.99,34.007"/>
		<g>
			<polygon fill="#010202" points="71.208,127.344 74.107,128.742 77.125,127.625 73.833,134.5 			"/>
		</g>
	</g>
</g>
<g opacity="0.8">
	<g>
		<path fill="none" stroke="#010202" stroke-width="0.4" stroke-miterlimit="10" d="M633.302,129.728
			c-3.115-41.213-139.712-34.007-222.298-34.007"/>
		<g>
			<polygon fill="#010202" points="633.479,134.5 630.187,127.625 633.204,128.742 636.104,127.344 			"/>
		</g>
	</g>
</g>
<rect x="275.277" y="159.516" opacity="0.8" fill="#ECECEC" stroke="#1E1E1C" stroke-width="0.197" stroke-miterlimit="10" width="186.547" height="19.074"/>
<text transform="matrix(1 0 0 1 276.2773 175.4775)" opacity="0.8" fill="#1E1E1C" enable-background="new    " font-family="'GeosansLight'" font-size="18.1203">“2018-03-28T13:00:00Z”</text>
<text transform="matrix(1 0 0 1 462.4512 166.8379)" opacity="0.8" fill="#1E1E1C" enable-background="new    " font-family="'GeosansLight'" font-size="10.5641">^^xsd:dateTime</text>
</svg>
